<svg width="648" height="94" viewBox="0 0 648 94" fill="none" xmlns="http://www.w3.org/2000/svg">
<path d="M30.4806 23.2061C30.3603 20.621 30.3002 16.7733 30.18 11.6031C30.0597 6.43278 29.9996 2.58514 29.8794 0H122.042C115.249 5.29051 105.029 13.1662 91.3816 23.6269C84.7684 23.6871 74.9088 23.7472 61.7427 23.7472C48.5765 23.7472 38.7169 23.8073 32.224 23.8674C44.8491 33.8472 54.2879 41.3021 60.6004 46.2319H121.742V69.8588H90.7804C90.9006 72.5041 91.0208 76.4719 91.2613 81.6422C91.5018 86.8125 91.622 90.7804 91.7423 93.4256H30.4806L15.2703 81.8226C5.11015 74.007 0 69.979 0 69.7386C0 69.438 14.9096 69.2576 44.6687 69.2576H89.3375C79.4779 61.8028 69.6784 54.2277 59.879 46.7128H0V23.2061H30.4806Z" fill="#F47900"/>
<path d="M178.41 17.5771V17.3694C178.41 15.2918 176.678 13.5605 174.601 13.5605H157.842C155.764 13.5605 154.033 15.2918 154.033 17.3694V17.5771C154.033 19.6547 155.764 21.386 157.842 21.386H172.731C176.54 21.386 180.002 23.0481 182.357 25.6105C182.565 25.8182 182.634 25.9567 182.842 26.1645C184.642 28.3806 185.82 31.2892 185.82 34.4056C185.82 41.6079 180.002 47.4251 172.8 47.4251H159.85C152.648 47.4251 146.83 41.6079 146.83 34.4056H154.24C154.24 37.522 156.803 40.0843 159.919 40.0843H172.869C175.986 40.0843 178.617 37.522 178.617 34.4056C178.617 31.2892 175.986 28.7268 172.869 28.7268H157.98C154.933 28.7268 152.232 27.5495 150.224 25.6105C149.67 25.0564 149.185 24.5024 148.839 23.8099C147.592 22.0093 146.9 19.8625 146.9 17.5079V17.3001C146.9 11.1366 151.886 6.15039 157.98 6.15039H174.739C180.903 6.15039 185.889 11.1366 185.889 17.3001V17.5079L178.41 17.5771Z" fill="white"/>
<path d="M230.973 6.21875V13.6288H214.006V47.5628H206.596V13.6288H189.629V6.21875H230.973Z" fill="white"/>
<path d="M270.308 40.223L274.117 47.6331H265.876L262.067 40.223L258.12 32.4667L257.912 32.1204C256.596 29.9736 254.311 28.5885 251.679 28.5885H244.269V47.6331H236.859V6.28906H262.967C266.014 6.28906 268.784 7.53562 270.793 9.54395C272.801 11.5523 274.048 14.3224 274.048 17.3695C274.048 21.871 271.416 25.7491 267.538 27.5497C266.568 28.0345 265.46 28.3115 264.352 28.45L270.308 40.223ZM262.967 21.1784C263.521 21.1784 264.006 21.0399 264.491 20.8322C265.876 20.2089 266.707 18.8931 266.707 17.4388C266.707 16.0537 266.014 15.1534 265.599 14.7379C265.114 14.2532 264.214 13.6991 262.967 13.6991H244.269V21.317L262.967 21.1784Z" fill="white"/>
<path d="M319.963 26.7878C319.963 38.2145 310.683 47.4251 299.326 47.4251C287.899 47.4251 278.688 38.1452 278.688 26.7878C278.688 15.4303 287.968 6.15039 299.326 6.15039C310.683 6.15039 319.963 15.4303 319.963 26.7878ZM312.622 26.7878C312.622 19.447 306.666 13.4912 299.326 13.4912C291.985 13.4912 286.029 19.447 286.029 26.7878C286.029 34.1286 291.985 40.0843 299.326 40.0843C306.666 40.0843 312.622 34.1286 312.622 26.7878Z" fill="white"/>
<path d="M317.885 47.4942H318.024L317.885 47.6327V47.4942ZM359.229 6.08097L343.232 26.7876L342.331 27.8956V47.3557H334.921V27.9649L333.952 26.7184L317.954 6.01172H327.303L338.661 20.6933L350.018 6.01172H359.229V6.08097Z" fill="white"/>
<path d="M403.259 6.21875V13.6288H386.292V47.5628H378.882V13.6288H361.915V6.21875H403.259Z" fill="white"/>
<path d="M416.556 17.3001V21.109H443.149V28.5191H416.556V36.3447C416.556 38.4223 418.287 40.1536 420.365 40.1536H450.559V47.5637H420.365C414.201 47.5637 409.284 42.5774 409.284 36.4139V17.3001C409.284 11.1366 414.271 6.15039 420.365 6.15039H450.559V13.5605H420.365C418.287 13.5605 416.556 15.2225 416.556 17.3001Z" fill="white"/>
<path d="M454.991 47.5628H455.13L454.991 47.7013V47.5628ZM496.404 6.21875L480.407 26.9254L496.335 47.5628H486.986L475.698 32.9504L464.41 47.5628H455.06L470.919 26.9254L454.922 6.21875H464.271L475.698 20.9004L487.055 6.21875H496.335H496.404ZM496.335 47.632L496.266 47.4935H496.335V47.632Z" fill="white"/>
<path d="M542.042 6.21875V47.5628L534.632 41.884L508.039 21.3851V47.5628H500.629V6.35726L508.039 12.036L534.632 32.5349V6.21875H542.042Z" fill="white"/>
<path d="M547.998 47.4944V6.15039H555.408V47.4944H547.998Z" fill="white"/>
<path d="M584.563 22.7711L602.43 47.4944H593.358L579.092 27.7573L568.635 37.245V47.4944H561.225V6.15039H568.635V27.2725L574.729 21.7323L580.2 16.7461L591.696 6.15039H602.638L584.563 22.7711Z" fill="white"/>
<path d="M647.029 47.4944H638.788L634.979 40.0843L625.976 22.3556L616.974 40.0843L613.165 47.4944H604.854L608.663 40.0843L625.976 6.15039L643.29 40.0843L647.029 47.4944Z" fill="white"/>
<path d="M146.691 62.373H162.035V82.3326H160.149V63.9984H148.577V82.3326H146.691V62.373Z" fill="white"/>
<path d="M166.065 62.373H174.907C175.818 62.373 176.598 62.5031 177.313 62.7631C178.028 63.0232 178.678 63.4133 179.198 63.8684C179.719 64.3885 180.109 64.9736 180.369 65.6888C180.629 66.404 180.759 67.1841 180.759 68.0944C180.759 69.0046 180.629 69.7847 180.369 70.4999C180.109 71.2151 179.719 71.8002 179.198 72.3203C178.678 72.8404 178.028 73.1655 177.313 73.4256C176.598 73.6856 175.753 73.8157 174.907 73.8157H168.016V82.3326H166.065V62.373ZM174.517 72.1253C175.818 72.1253 176.923 71.8002 177.703 71.1501C178.548 70.4999 178.938 69.4597 178.938 68.0944C178.938 66.729 178.548 65.6888 177.703 65.0387C176.858 64.3885 175.818 64.0634 174.517 64.0634H168.016V72.1253H174.517Z" fill="white"/>
<path d="M192.007 82.7222C190.446 82.7222 189.081 82.4621 187.911 81.877C186.74 81.2918 185.765 80.5767 184.985 79.6014C184.205 78.6262 183.62 77.586 183.23 76.2857C182.84 75.0504 182.645 73.7501 182.645 72.3198C182.645 70.9545 182.84 69.6542 183.23 68.4189C183.62 67.1836 184.205 66.0784 184.985 65.1031C185.765 64.1279 186.74 63.4127 187.911 62.8276C189.081 62.2425 190.446 61.9824 192.007 61.9824C193.567 61.9824 194.932 62.2425 196.103 62.8276C197.273 63.4127 198.248 64.1279 199.028 65.1031C199.808 66.0784 200.394 67.1836 200.784 68.4189C201.174 69.6542 201.369 70.9545 201.369 72.3198C201.369 73.6851 201.174 74.9854 200.784 76.2857C200.394 77.521 199.808 78.6262 199.028 79.6014C198.248 80.5767 197.273 81.2918 196.103 81.877C194.932 82.4621 193.567 82.7222 192.007 82.7222ZM192.007 81.0968C193.307 81.0968 194.412 80.8367 195.387 80.3166C196.363 79.7965 197.143 79.1463 197.728 78.3012C198.313 77.456 198.768 76.5457 199.093 75.5055C199.353 74.4653 199.548 73.425 199.548 72.3198C199.548 71.2145 199.418 70.1743 199.093 69.1341C198.833 68.0938 198.378 67.1186 197.728 66.3384C197.143 65.4932 196.363 64.8431 195.387 64.323C194.412 63.8028 193.307 63.5428 192.007 63.5428C190.706 63.5428 189.536 63.8028 188.626 64.323C187.651 64.8431 186.871 65.4932 186.285 66.3384C185.7 67.1836 185.245 68.0938 184.92 69.1341C184.66 70.1743 184.465 71.2795 184.465 72.3198C184.465 73.425 184.595 74.4653 184.92 75.5055C185.18 76.5457 185.635 77.456 186.285 78.3012C186.871 79.1463 187.651 79.7965 188.626 80.3166C189.601 80.8367 190.706 81.0968 192.007 81.0968Z" fill="white"/>
<path d="M202.343 80.7072H204.424C205.139 79.4069 205.659 78.0416 206.049 76.6763C206.439 75.311 206.764 73.9457 206.959 72.5804C207.154 71.2151 207.284 69.9148 207.349 68.6145C207.414 67.3142 207.414 66.1439 207.414 64.9736V62.373H219.767V80.7072H222.108V87.5988H220.222V82.2676H204.229V87.5988H202.343V80.7072ZM217.882 80.7072V63.9984H209.365V64.6486C209.365 65.7538 209.365 66.9891 209.3 68.2894C209.3 69.5897 209.17 70.955 208.975 72.3203C208.78 73.6856 208.52 75.116 208.13 76.5463C207.74 77.9766 207.219 79.3419 206.504 80.6422H217.882V80.7072Z" fill="white"/>
<path d="M230.17 62.373H232.315L240.117 82.3326H238.101L235.696 76.1562H226.594L224.188 82.3326H222.173L230.17 62.373ZM235.046 74.4658L231.21 64.2585L227.244 74.4658H235.046Z" fill="white"/>
<path d="M248.699 70.955L240.442 62.373H243.043L252.86 72.8404V62.373H254.745V72.8404L264.562 62.373H267.163L258.906 70.955L267.878 82.2676H265.408L257.541 72.3203L254.745 75.246V82.2676H252.86V75.246L250.064 72.3203L242.197 82.2676H239.727L248.699 70.955Z" fill="white"/>
<path d="M275.421 62.373H277.567L285.368 82.3326H283.353L280.947 76.1562H271.845L269.44 82.3326H267.424L275.421 62.373ZM280.232 74.4658L276.396 64.2585L272.43 74.4658H280.232Z" fill="white"/>
<path d="M303.377 82.7222C301.816 82.7222 300.451 82.4621 299.281 81.877C298.111 81.2918 297.135 80.5767 296.355 79.6014C295.575 78.6262 294.99 77.586 294.6 76.2857C294.21 75.0504 294.015 73.7501 294.015 72.3198C294.015 70.9545 294.21 69.6542 294.6 68.4189C294.99 67.1836 295.575 66.0784 296.355 65.1031C297.135 64.1279 298.111 63.4127 299.281 62.8276C300.451 62.2425 301.816 61.9824 303.377 61.9824C304.352 61.9824 305.262 62.1125 306.172 62.3725C307.083 62.6326 307.863 63.0877 308.643 63.6078C309.358 64.1279 310.008 64.8431 310.463 65.6233C310.984 66.4034 311.244 67.3136 311.374 68.4189H309.488C309.293 67.6387 309.033 66.9886 308.643 66.3384C308.253 65.7533 307.798 65.2332 307.278 64.8431C306.758 64.453 306.107 64.1279 305.457 63.9329C304.807 63.7378 304.092 63.6078 303.377 63.6078C302.077 63.6078 300.906 63.8679 299.996 64.388C299.021 64.9081 298.241 65.5582 297.655 66.4034C297.07 67.2486 296.615 68.1588 296.29 69.1991C296.03 70.2393 295.835 71.3446 295.835 72.3848C295.835 73.4901 295.965 74.5303 296.29 75.5705C296.55 76.6108 297.005 77.521 297.655 78.3662C298.241 79.2114 299.021 79.8615 299.996 80.3816C300.971 80.9017 302.077 81.1618 303.377 81.1618C304.287 81.1618 305.132 80.9668 305.847 80.6417C306.628 80.3166 307.278 79.8615 307.798 79.2764C308.318 78.6912 308.773 78.0411 309.098 77.2609C309.423 76.4807 309.618 75.6355 309.748 74.7903H311.634C311.504 76.0256 311.244 77.1309 310.788 78.1061C310.333 79.0813 309.748 79.9265 309.033 80.6417C308.318 81.3568 307.473 81.877 306.563 82.2671C305.652 82.5271 304.547 82.7222 303.377 82.7222Z" fill="white"/>
<path d="M319.371 63.9984H312.479V62.373H328.278V63.9984H321.321V82.3326H319.436V63.9984H319.371Z" fill="white"/>
<path d="M330.098 62.373H338.94C339.85 62.373 340.631 62.5031 341.346 62.7631C342.061 63.0232 342.711 63.4133 343.231 63.8684C343.751 64.3885 344.141 64.9736 344.401 65.6888C344.661 66.404 344.792 67.1841 344.792 68.0944C344.792 69.0046 344.661 69.7847 344.401 70.4999C344.141 71.2151 343.751 71.8002 343.231 72.3203C342.711 72.8404 342.061 73.1655 341.346 73.4256C340.631 73.6856 339.785 73.8157 338.94 73.8157H331.984V82.3326H330.098V62.373ZM338.55 72.1253C339.85 72.1253 340.956 71.8002 341.736 71.1501C342.581 70.4999 342.971 69.4597 342.971 68.0944C342.971 66.729 342.581 65.6888 341.736 65.0387C340.891 64.3885 339.85 64.0634 338.55 64.0634H332.049V72.1253H338.55Z" fill="white"/>
<path d="M356.039 82.7222C354.479 82.7222 353.113 82.4621 351.943 81.877C350.773 81.2918 349.798 80.5767 349.018 79.6014C348.237 78.6262 347.652 77.586 347.262 76.2857C346.872 75.0504 346.677 73.7501 346.677 72.3198C346.677 70.9545 346.872 69.6542 347.262 68.4189C347.652 67.1836 348.237 66.0784 349.018 65.1031C349.798 64.1279 350.773 63.4127 351.943 62.8276C353.113 62.2425 354.479 61.9824 356.039 61.9824C357.6 61.9824 358.965 62.2425 360.135 62.8276C361.305 63.4127 362.281 64.1279 363.061 65.1031C363.841 66.0784 364.426 67.1836 364.816 68.4189C365.206 69.6542 365.401 70.9545 365.401 72.3198C365.401 73.6851 365.206 74.9854 364.816 76.2857C364.426 77.521 363.841 78.6262 363.061 79.6014C362.281 80.5767 361.305 81.2918 360.135 81.877C358.965 82.4621 357.6 82.7222 356.039 82.7222ZM356.039 81.0968C357.339 81.0968 358.445 80.8367 359.42 80.3166C360.395 79.7965 361.175 79.1463 361.76 78.3012C362.346 77.456 362.801 76.5457 363.126 75.5055C363.386 74.4653 363.581 73.425 363.581 72.3198C363.581 71.2145 363.451 70.1743 363.126 69.1341C362.866 68.0938 362.411 67.1186 361.76 66.3384C361.175 65.4932 360.395 64.8431 359.42 64.323C358.445 63.8028 357.339 63.5428 356.039 63.5428C354.739 63.5428 353.569 63.8028 352.658 64.323C351.683 64.8431 350.903 65.4932 350.318 66.3384C349.733 67.1836 349.278 68.0938 348.953 69.1341C348.692 70.1743 348.497 71.2795 348.497 72.3198C348.497 73.425 348.627 74.4653 348.953 75.5055C349.213 76.5457 349.668 77.456 350.318 78.3012C350.903 79.1463 351.683 79.7965 352.658 80.3166C353.569 80.8367 354.739 81.0968 356.039 81.0968Z" fill="white"/>
<path d="M368.392 62.373H370.277V80.2521L381.72 62.373H384.191V82.3326H382.305V64.4535L370.863 82.3326H368.392V62.373Z" fill="white"/>
<path d="M393.033 63.9984H386.142V62.373H401.94V63.9984H394.919V82.3326H393.033V63.9984Z" fill="white"/>
<path d="M403.695 62.373H417.478V63.9984H405.646V71.2151H416.763V72.8404H405.646V80.7072H417.674V82.3326H403.76V62.373H403.695Z" fill="white"/>
<path d="M419.754 82.4626C419.624 82.4626 419.494 82.4626 419.364 82.4626C419.234 82.4626 419.039 82.3976 418.844 82.3976C418.649 82.3976 418.518 82.3326 418.388 82.3326C418.258 82.3326 418.193 82.2676 418.128 82.2676V80.7072C418.258 80.7722 418.518 80.8373 418.844 80.8373C419.169 80.8373 419.364 80.9023 419.559 80.9023C419.754 80.9023 420.014 80.9023 420.274 80.8373C420.534 80.7723 420.859 80.6422 421.184 80.3171C421.509 80.0571 421.769 79.602 422.094 78.9518C422.419 78.3017 422.679 77.4565 422.874 76.2862C423.135 75.116 423.33 73.6206 423.46 71.8652C423.59 70.0448 423.655 67.8993 423.655 65.2987V62.373H435.942V82.3326H434.057V63.9984H425.475V65.1037C425.475 68.0293 425.41 70.4349 425.215 72.4503C425.02 74.4008 424.76 76.0912 424.435 77.3915C424.11 78.6918 423.785 79.667 423.33 80.3822C422.94 81.0973 422.549 81.6174 422.094 81.8775C421.704 82.2026 421.249 82.3976 420.859 82.4626C420.469 82.4626 420.144 82.4626 419.754 82.4626Z" fill="white"/>
<path d="M439.909 62.373H441.794V70.825H448.751C450.636 70.825 452.066 71.3451 453.107 72.3853C454.147 73.4256 454.667 74.7909 454.667 76.6113C454.667 78.3667 454.147 79.797 453.107 80.8373C452.066 81.8775 450.636 82.3976 448.751 82.3976H439.909V62.373ZM448.361 80.7072C449.726 80.7072 450.831 80.3171 451.611 79.602C452.392 78.8868 452.782 77.8466 452.782 76.5463C452.782 75.246 452.392 74.2708 451.611 73.4906C450.831 72.7754 449.726 72.3853 448.361 72.3853H441.859V80.6422H448.361V80.7072Z" fill="white"/>
<path d="M457.527 62.373H459.413V71.02H471.245V62.373H473.131V82.3326H471.245V72.6454H459.413V82.3326H457.527V62.373Z" fill="white"/>
<path d="M485.549 82.7222C483.989 82.7222 482.623 82.4621 481.453 81.877C480.283 81.2918 479.308 80.5767 478.528 79.6014C477.747 78.6262 477.162 77.586 476.772 76.2857C476.382 75.0504 476.187 73.7501 476.187 72.3198C476.187 70.9545 476.382 69.6542 476.772 68.4189C477.162 67.1836 477.747 66.0784 478.528 65.1031C479.308 64.1279 480.283 63.4127 481.453 62.8276C482.623 62.2425 483.989 61.9824 485.549 61.9824C487.11 61.9824 488.475 62.2425 489.645 62.8276C490.815 63.4127 491.791 64.1279 492.571 65.1031C493.351 66.0784 493.936 67.1836 494.326 68.4189C494.716 69.6542 494.911 70.9545 494.911 72.3198C494.911 73.6851 494.716 74.9854 494.326 76.2857C493.936 77.521 493.351 78.6262 492.571 79.6014C491.791 80.5767 490.815 81.2918 489.645 81.877C488.475 82.3971 487.11 82.7222 485.549 82.7222ZM485.549 81.0968C486.849 81.0968 487.955 80.8367 488.93 80.3166C489.905 79.7965 490.685 79.1463 491.27 78.3012C491.856 77.456 492.311 76.5457 492.636 75.5055C492.896 74.4653 493.091 73.425 493.091 72.3198C493.091 71.2145 492.961 70.1743 492.636 69.1341C492.376 68.0938 491.921 67.1186 491.27 66.3384C490.685 65.4932 489.905 64.8431 488.93 64.323C487.955 63.8028 486.849 63.5428 485.549 63.5428C484.249 63.5428 483.079 63.8028 482.168 64.323C481.193 64.8431 480.413 65.4932 479.828 66.3384C479.243 67.1836 478.788 68.0938 478.463 69.1341C478.202 70.1743 478.007 71.2795 478.007 72.3198C478.007 73.425 478.137 74.4653 478.463 75.5055C478.723 76.5457 479.178 77.456 479.828 78.3012C480.413 79.1463 481.193 79.7965 482.168 80.3166C483.079 80.8367 484.184 81.0968 485.549 81.0968Z" fill="white"/>
<path d="M497.836 62.3731H499.722V80.2521L511.23 62.3731H513.7V82.3326H511.815V64.4535L500.372 82.3326H497.901V62.3731H497.836ZM505.573 60.7477C504.403 60.7477 503.493 60.4226 502.843 59.8375C502.192 59.1873 501.802 58.3421 501.672 57.1719H502.778C502.843 57.887 503.168 58.4072 503.688 58.8623C504.208 59.2523 504.858 59.4474 505.703 59.4474C506.483 59.4474 507.134 59.2523 507.654 58.8623C508.174 58.4722 508.499 57.887 508.629 57.1719H509.734C509.539 58.3421 509.084 59.2523 508.434 59.8375C507.719 60.4226 506.743 60.7477 505.573 60.7477Z" fill="white"/>
<path d="M530.279 63.9984H523.387V62.373H539.186V63.9984H532.229V82.3326H530.344V63.9984H530.279Z" fill="white"/>
<path d="M540.942 62.373H554.725V63.9984H542.892V71.2151H554.01V72.8404H542.892V80.7072H554.855V82.3326H540.942V62.373Z" fill="white"/>
<path d="M562.331 72.0603L555.57 62.373H557.78L563.437 70.695L569.288 62.373H571.433L564.607 72.0603L571.823 82.2676H569.548L563.502 73.4906L557.39 82.2676H555.245L562.331 72.0603Z" fill="white"/>
<path d="M573.579 62.373H575.465V71.02H587.297V62.373H589.183V82.3326H587.297V72.6454H575.465V82.3326H573.579V62.373Z" fill="white"/>
<path d="M593.214 62.373H595.099V80.2521L606.542 62.373H609.012V82.3326H607.127V64.4535L595.684 82.3326H593.214V62.373Z" fill="white"/>
<path d="M613.043 62.373H614.929V73.1005L626.501 62.373H629.102L620.195 70.6299L629.492 82.3326H627.021L618.7 71.9302L614.864 75.506V82.3326H612.978V62.373H613.043Z" fill="white"/>
<path d="M631.116 62.373H633.002V80.2521L644.445 62.373H646.915V82.3326H645.03V64.4535L633.587 82.3326H631.116V62.373Z" fill="white"/>
</svg>
